<svg xmlns="http://www.w3.org/2000/svg" version="1.1" xmlns:xlink="http://www.w3.org/1999/xlink" xmlns:svgjs="http://svgjs.dev/svgjs" viewBox="0 0 800 400"><path d="M14.456143379211426,218.9085693359375C17.7437268892924,214.57493591308594,26.709864457448322,193.05620574951172,34.181644439697266,192.90676879882812C41.653424421946205,192.75733184814453,51.66560808817545,219.20743306477866,59.28682327270508,218.01194763183594C66.9080384572347,216.81646219889322,72.13828468322754,186.18216196695963,79.908935546875,185.73385620117188C87.67958641052246,185.28555043538412,98.58838399251302,214.57493336995444,105.91072845458984,215.32211303710938C113.23307291666667,216.0692927042643,116.22178522745769,191.1135482788086,123.84300231933594,190.21693420410156C131.4642194112142,189.32032012939453,143.7179438273112,211.73565673828125,151.63803100585938,209.9424285888672C159.55811818440756,208.14920043945312,163.14456939697266,180.5036137898763,171.363525390625,179.4575653076172C179.58248138427734,178.41151682535806,191.38788859049478,204.86162312825522,200.95176696777344,203.6661376953125C210.5156453450521,202.47065226236978,219.78065745035806,173.62957509358725,228.74679565429688,172.28465270996094C237.7129338582357,170.93973032633463,246.8285115559896,195.74603780110678,254.74859619140625,195.5966033935547C262.66868082682294,195.4471689860026,267.89891052246094,171.38804626464844,276.2673034667969,171.38804626464844C284.6356964111328,171.38804626464844,298.2343495686849,195.74604034423828,304.9589538574219,195.5966033935547C311.6835581461589,195.4471664428711,310.63750712076825,172.28465016682944,316.61492919921875,170.49142456054688C322.59235127766925,168.6981989542643,332.75396219889325,186.33160400390625,340.823486328125,184.83724975585938C348.89301045735675,183.3428955078125,356.66368103027344,161.37586466471353,365.0320739746094,161.52529907226562C373.4004669189453,161.67473347981772,382.9643249511719,185.88329315185547,391.0338439941406,185.73385620117188C399.1033630371094,185.58441925048828,406.12684122721356,161.97359720865884,413.4491882324219,160.62867736816406C420.7715352376302,159.28375752766928,425.2546081542969,178.71038564046225,434.9679260253906,177.66433715820312C444.6812438964844,176.618288675944,462.16521708170575,154.65125783284506,471.7290954589844,154.35238647460938C481.292973836263,154.0535151163737,482.93675231933594,175.12393188476562,492.3511962890625,175.87110900878906C501.76564025878906,176.6182861328125,519.2496236165365,159.43319193522134,528.2157592773438,158.83544921875C537.181894938151,158.23770650227866,540.3200276692709,173.18126678466797,546.1480102539062,172.28465270996094C551.9759928385416,171.3880386352539,554.366953531901,154.50181325276694,563.1836547851562,153.4557647705078C572.0003560384115,152.4097162882487,590.5303853352865,166.7555389404297,599.0482177734375,166.00836181640625C607.5660502115885,165.2611846923828,605.7728169759115,149.12213897705078,614.2906494140625,148.9727020263672C622.8084818522135,148.8232650756836,640.2924601236979,166.45665995279947,650.1552124023438,165.1117401123047C660.0179646809896,163.7668202718099,663.1561075846354,142.5469741821289,673.4671630859375,140.90318298339844C683.7782185872396,139.25939178466797,702.0093587239584,155.39842987060547,712.0215454101562,155.24899291992188C722.0337320963541,155.09955596923828,724.4247131347656,139.85712432861328,733.540283203125,140.00656127929688C742.6558532714844,140.15599822998047,761.1858520507812,153.45577239990234,766.7149658203125,156.14561462402344" fill="none" stroke-width="6" stroke="url(&quot;#SvgjsLinearGradient1002&quot;)" stroke-linecap="round"></path><defs><linearGradient id="SvgjsLinearGradient1002"><stop stop-color="hsl(300,87.98%,54.31%)" offset="0"></stop><stop stop-color="hsl(316, 73%, 52%)" offset="1"></stop></linearGradient></defs></svg>